HIERARCHY
ROOT Hips
{
    OFFSET 0.000000 0.000000 0.000000
    CHANNELS 6 Xposition Yposition Zposition Zrotation Xrotation Yrotation
    JOINT Spine
    {
        OFFSET -0.000000 7.246840 0.000000
        CHANNELS 3 Zrotation Xrotation Yrotation
        JOINT Spine1
        {
            OFFSET -0.000000 20.289354 0.000000
            CHANNELS 3 Zrotation Xrotation Yrotation
            JOINT Neck
            {
                OFFSET -0.000000 20.206032 1.836912
                CHANNELS 3 Zrotation Xrotation Yrotation
                JOINT Head
                {
                    OFFSET -0.000000 12.372654 -1.767522
                    CHANNELS 3 Zrotation Xrotation Yrotation
                    End Site
                    {
                        OFFSET -0.000000 22.094025 0.000000
                    }
                }
            }
            JOINT LeftShoulder
            {
                OFFSET 3.465871 17.201674 -0.568930
                CHANNELS 3 Zrotation Xrotation Yrotation
                JOINT LeftArm
                {
                    OFFSET 14.070313 0.000000 0.000000
                    CHANNELS 3 Zrotation Xrotation Yrotation
                    JOINT LeftForeArm
                    {
                        OFFSET 26.549477 0.000000 0.000000
                        CHANNELS 3 Zrotation Xrotation Yrotation
                        JOINT LeftHand
                        {
                            OFFSET 18.880413 0.000000 0.000000
                            CHANNELS 3 Zrotation Xrotation Yrotation
                            End Site
                            {
                                OFFSET 13.256415 0.000000 0.000000
                            }
                        }
                    }
                }
            }
            JOINT RightShoulder
            {
                OFFSET -3.526370 17.201674 -0.568930
                CHANNELS 3 Zrotation Xrotation Yrotation
                JOINT RightArm
                {
                    OFFSET -14.070313 0.000000 0.000000
                    CHANNELS 3 Zrotation Xrotation Yrotation
                    JOINT RightForeArm
                    {
                        OFFSET -26.549477 0.000000 0.000000
                        CHANNELS 3 Zrotation Xrotation Yrotation
                        JOINT RightHand
                        {
                            OFFSET -18.880413 0.000000 0.000000
                            CHANNELS 3 Zrotation Xrotation Yrotation
                            End Site
                            {
                                OFFSET -13.256415 0.000000 0.000000
                            }
                        }
                    }
                }
            }
        }
    }
    JOINT LeftUpLeg
    {
        OFFSET 8.837609 0.000000 0.000000
        CHANNELS 3 Zrotation Xrotation Yrotation
        JOINT LeftLeg
        {
            OFFSET -0.000000 -41.345005 0.000000
            CHANNELS 3 Zrotation Xrotation Yrotation
            JOINT LeftFoot
            {
                OFFSET -0.000000 -35.500874 0.000000
                CHANNELS 3 Zrotation Xrotation Yrotation
                JOINT LeftToeBase
                {
                    OFFSET -0.000000 -5.744446 13.256415
                    CHANNELS 3 Zrotation Xrotation Yrotation
                    End Site
                    {
                        OFFSET -0.000000 0.000000 3.535044
                    }
                }
            }
        }
    }
    JOINT RightUpLeg
    {
        OFFSET -8.837609 0.000000 0.000000
        CHANNELS 3 Zrotation Xrotation Yrotation
        JOINT RightLeg
        {
            OFFSET -0.000000 -41.345005 0.000000
            CHANNELS 3 Zrotation Xrotation Yrotation
            JOINT RightFoot
            {
                OFFSET -0.000000 -35.500874 0.000000
                CHANNELS 3 Zrotation Xrotation Yrotation
                JOINT RightToeBase
                {
                    OFFSET -0.000000 -5.744446 13.256415
                    CHANNELS 3 Zrotation Xrotation Yrotation
                    End Site
                    {
                        OFFSET -0.000000 0.000000 3.535044
                    }
                }
            }
        }
    }
}
MOTION
Frames:    9
Frame Time:    0.010000
5.961666    82.402458    -64.060989    1.967107    3.690061    -0.876621    -3.270097    -15.071599    -1.265776    1.858253    1.664101    -0.860039    2.398515    33.945194    -2.555806    -0.113179    -10.467241    -2.261302    19.332497    2.837492    7.922273    -37.070343    5.229545    -10.146257    4.950732    -5.911145    1.604186    -15.243785    -4.737756    -9.304204    -15.678679    2.193363    10.062639    21.429680    4.520193    11.143871    -0.787182    -5.678253    -5.850416    8.874826    -4.221338    19.181009    -2.732501    6.978988    -1.655289    -2.988538    -9.509570    -5.601779    7.236564    1.208652    0.327506    0.017286    -1.770739    -0.024460    -7.284260    4.476916    1.891846    7.778468    -10.472052    2.821364    -1.497700    0.837382    -8.715642    -0.248934    -0.058389    0.446699    
5.955244    82.402199    -64.052467    1.967052    3.693894    -0.901489    -3.264245    -15.057001    -1.248508    1.823727    1.635372    -0.843013    2.415332    33.976589    -2.526690    -0.121123    -10.510692    -2.229121    19.321604    3.022716    7.846861    -37.082287    5.056546    -10.149871    5.017071    -5.997540    1.600993    -15.705270    -4.809764    -9.139569    -15.699077    2.185824    10.062126    21.362791    4.589334    11.070625    -0.807891    -5.719534    -5.794826    9.158201    -4.216148    19.170738    -2.736087    6.984033    -1.643839    -2.962434    -9.518733    -5.628225    7.270074    1.204988    0.314181    -0.020237    -1.760484    0.028635    -7.280860    4.479818    1.926369    7.740798    -10.507088    2.881431    -1.561948    0.892153    -8.802684    -0.307003    -0.092179    0.551101    
5.949866    82.402260    -64.044746    1.965323    3.700979    -0.932865    -3.236562    -15.050900    -1.223621    1.754872    1.617374    -0.820753    2.439224    33.960300    -2.541063    -0.113460    -10.475009    -2.238507    19.360119    3.003337    7.829040    -37.101501    5.068176    -10.108809    5.047101    -6.035611    1.631358    -15.795244    -4.842011    -9.142132    -15.701219    2.203605    10.047719    21.319429    4.502057    11.039955    -0.758797    -5.727056    -5.736207    9.026457    -4.242681    19.176537    -2.734713    6.980476    -1.629468    -2.975462    -9.502348    -5.553490    7.335629    1.165049    0.300335    0.010917    -1.717978    -0.015443    -7.275128    4.474078    1.923176    7.740086    -10.511265    2.909641    -1.574532    0.902213    -8.807895    -0.313148    -0.109363    0.562236    
5.942626    82.400002    -64.036057    1.966435    3.700819    -0.957379    -3.226798    -15.033586    -1.208318    1.708444    1.592734    -0.806210    2.429659    33.962158    -2.545568    -0.082017    -10.466155    -2.237532    19.375937    3.001805    7.847260    -37.101559    5.072151    -10.107690    5.056867    -6.043418    1.659517    -15.858972    -4.846051    -9.141904    -15.712358    2.202392    10.043180    21.286518    4.423923    11.012919    -0.704453    -5.675321    -5.731140    8.837685    -4.216300    19.224546    -2.726870    6.980744    -1.646849    -2.987954    -9.478706    -5.551869    7.303310    1.143682    0.365146    0.028337    -1.690820    -0.040079    -7.273639    4.478878    1.931824    7.749696    -10.511518    2.915318    -1.436349    0.854289    -8.738237    -0.095246    -0.565078    0.171857    
5.939627    82.400391    -64.026756    1.967373    3.704231    -0.992900    -3.202145    -15.030268    -1.180578    1.658191    1.583885    -0.780944    2.424162    33.966682    -2.554237    -0.063774    -10.473275    -2.243211    19.376688    2.978387    7.839403    -37.097519    5.071506    -10.068099    5.073972    -6.059388    1.662499    -16.036112    -4.845432    -9.160417    -15.731286    2.231434    10.012598    21.247141    4.343729    11.034223    -0.676778    -5.672605    -5.800152    8.532436    -4.253609    19.366396    -2.744059    6.991096    -1.619773    -2.979745    -9.483438    -5.412389    6.762460    1.352371    0.386454    0.102296    -2.131721    -0.145083    -7.276290    4.482036    1.974136    7.656663    -10.562825    3.136366    -1.351449    0.884002    -9.025651    -0.221452    -0.044843    0.397326    
5.934062    82.398987    -64.017822    1.968745    3.706589    -1.022727    -3.190891    -15.022189    -1.161895    1.619736    1.568573    -0.763265    2.413254    33.972118    -2.561178    -0.041325    -10.472951    -2.247001    19.382122    2.971198    7.846080    -37.113213    5.039031    -10.037714    5.059419    -6.058856    1.652332    -15.944944    -4.844624    -9.210623    -15.753803    2.234272    10.008123    21.222660    4.319831    11.035059    -0.703984    -5.662777    -5.825643    8.537974    -4.250948    19.280270    -2.741419    6.989071    -1.617900    -2.961749    -9.482697    -5.502113    7.319838    1.139691    0.343231    0.001369    -1.763577    -0.001937    -7.270417    4.452090    1.730963    7.683284    -10.477181    3.442124    -1.381578    0.873920    -9.067981    -0.270647    -0.059280    0.485666    
5.929331    82.398453    -64.008430    1.972717    3.705861    -1.053671    -3.174232    -15.012989    -1.138954    1.569126    1.550397    -0.741823    2.443672    34.006760    -2.573730    -0.057604    -10.515095    -2.257564    19.382469    2.994540    7.858067    -37.126156    4.968853    -10.048516    5.042231    -6.070765    1.669461    -15.798505    -4.860147    -9.274440    -15.755384    2.245146    10.014475    21.180645    4.314438    11.024251    -0.750736    -5.737091    -5.871623    8.573730    -4.321950    19.281015    -2.745498    6.994874    -1.641240    -2.944175    -9.483171    -5.487525    7.283643    1.144432    0.351994    -0.022476    -1.795801    0.031810    -7.276606    4.455985    1.779391    7.799753    -10.442925    3.119302    -1.607650    0.865256    -8.728580    -0.197065    -0.620052    0.355788    
5.920954    82.397812    -63.999474    1.975024    3.700652    -1.081434    -3.176285    -14.999894    -1.118750    1.544244    1.537560    -0.721323    2.452669    34.019360    -2.584392    -0.051084    -10.532093    -2.265213    19.382076    2.998198    7.872082    -37.142159    4.932596    -10.062263    5.040374    -6.083846    1.690034    -15.676786    -4.877515    -9.322625    -15.765137    2.242017    10.020535    21.146078    4.306301    11.000501    -0.809923    -5.755436    -5.917524    8.771180    -4.313213    19.240761    -2.741274    7.000018    -1.642651    -2.958080    -9.451808    -5.427339    6.769179    1.323106    0.428565    0.028802    -2.185342    -0.040862    -7.272236    4.459031    1.759728    7.803685    -10.433802    3.159708    -1.495493    0.834649    -8.734820    -0.252272    -0.083725    0.452813    
5.914341    82.397453    -63.988113    1.975147    3.691377    -1.110095    -3.165627    -14.988558    -1.095968    1.497955    1.528153    -0.699414    2.476645    34.021954    -2.589856    -0.035317    -10.525662    -2.262919    19.380480    3.027190    7.876700    -37.136570    4.879793    -10.087476    5.041483    -6.107509    1.697972    -15.615966    -4.910508    -9.294286    -15.768068    2.238384    10.040445    21.099800    4.402054    10.937323    -0.794378    -5.772646    -5.846125    8.821910    -4.333270    19.079733    -2.736966    7.012074    -1.647635    -2.963459    -9.441338    -5.417678    6.745760    1.314292    0.475596    0.068088    -2.197984    -0.096606    -7.272078    4.473292    1.801863    7.690022    -10.485339    3.431115    -1.402470    0.875668    -8.995435    -0.119609    -0.592977    0.215883    
